<?xml version="1.0" standalone="no"?>
<!DOCTYPE svg PUBLIC "-//W3C//DTD SVG 20010904//EN"
 "http://www.w3.org/TR/2001/REC-SVG-20010904/DTD/svg10.dtd">
<svg version="1.0" xmlns="http://www.w3.org/2000/svg"
 width="1169.000000pt" height="756.000000pt" viewBox="0 0 1169.000000 756.000000"
 preserveAspectRatio="xMidYMid meet">

<g transform="translate(0.000000,756.000000) scale(0.100000,-0.100000)"
fill="#000000" stroke="none">
<path d="M0 3780 l0 -3780 5845 0 5845 0 0 3780 0 3780 -5845 0 -5845 0 0
-3780z m11201 3180 c10 -6 19 -20 19 -30 0 -32 36 -60 76 -60 49 0 70 14 84
55 23 70 100 49 100 -27 0 -40 -15 -65 -50 -83 -26 -14 -30 -21 -30 -60 0 -24
7 -74 15 -111 9 -36 13 -69 10 -72 -3 -4 -18 1 -33 11 -65 41 -97 50 -162 47
-134 -5 -151 -3 -173 19 -33 33 -13 55 56 62 128 14 142 81 30 141 -17 9 -36
26 -43 37 -9 18 -7 26 19 51 31 32 50 36 82 20z m-6716 -130 c9 -10 20 -40 22
-65 9 -77 -34 -99 -88 -46 -20 21 -29 39 -29 62 0 61 57 91 95 49z m-4087
-1696 c29 -20 28 -59 -2 -89 -63 -63 -137 -31 -127 55 5 44 85 65 129 34z
m4193 -444 c20 -6 52 -20 70 -33 38 -25 30 5 210 -750 46 -191 86 -344 89
-340 8 9 52 196 236 999 l25 111 152 12 c93 8 168 9 192 4 35 -8 40 -12 37
-34 -13 -89 -434 -1570 -456 -1604 -27 -41 -80 -50 -232 -38 -74 6 -139 14
-144 19 -10 11 -386 1333 -426 1497 l-28 117 21 22 c12 11 39 24 60 29 44 9
141 3 194 -11z m-2207 0 c160 -26 234 -68 313 -178 40 -56 61 -100 88 -183 51
-159 46 -218 -21 -235 -39 -10 -165 6 -211 26 -48 21 -67 47 -89 121 -9 30
-25 66 -35 81 -27 37 -96 61 -182 62 -178 2 -231 -95 -244 -444 -6 -190 7
-371 33 -461 38 -129 130 -184 276 -164 68 10 110 50 133 127 30 105 67 128
205 128 98 0 148 -14 162 -46 24 -52 -71 -295 -150 -384 -83 -94 -198 -133
-397 -134 -203 0 -321 40 -426 145 -131 131 -199 372 -199 705 0 389 107 679
287 776 46 25 133 52 198 61 60 8 201 7 259 -3z m1411 -13 c146 -41 225 -109
298 -258 88 -179 121 -341 120 -589 -2 -328 -61 -536 -189 -671 -105 -109
-225 -152 -424 -152 -292 0 -461 108 -550 352 -50 136 -64 241 -64 486 -1 243
9 327 55 470 69 218 188 334 380 371 89 16 300 12 374 -9z m2325 -827 l0 -850
-180 0 -180 0 0 850 0 850 180 0 180 0 0 -850z m763 835 c222 -33 302 -67 407
-174 88 -89 138 -181 178 -330 24 -89 26 -111 26 -316 1 -225 -6 -284 -51
-445 -48 -171 -170 -291 -364 -355 -129 -43 -219 -55 -466 -62 l-233 -6 0 852
0 851 203 0 c127 0 238 -6 300 -15z m2359 -36 c11 -68 29 -999 26 -1339 l-3
-305 -152 -3 -153 -3 0 646 c0 355 -2 645 -4 645 -2 0 -56 -20 -120 -45 -150
-58 -187 -64 -215 -36 -28 28 -30 138 -3 183 31 53 134 112 377 215 186 80
218 92 230 89 6 -1 13 -23 17 -47z m1069 41 c93 -17 173 -64 229 -133 27 -33
63 -86 79 -116 110 -207 119 -635 20 -936 -86 -260 -262 -432 -489 -479 -121
-24 -167 -28 -191 -15 -20 10 -21 16 -16 91 4 44 15 98 26 123 20 46 32 54
134 90 166 59 312 246 211 271 -14 4 -59 1 -100 -6 -88 -15 -149 -8 -219 24
-267 122 -348 557 -164 882 40 71 104 141 150 165 89 45 216 60 330 39z
m-2064 -828 c31 -17 43 -70 43 -191 l0 -104 -152 7 c-278 12 -363 29 -389 78
-15 27 -23 179 -11 196 17 25 75 31 282 29 141 -2 212 -6 227 -15z m-7067
-2292 c28 -28 2 -88 -52 -116 -52 -27 -96 8 -83 66 13 61 94 91 135 50z m1829
-855 c16 -8 34 -28 39 -45 14 -39 31 -38 102 6 66 40 103 43 108 6 5 -30 -12
-48 -70 -78 -26 -13 -48 -31 -48 -39 0 -7 26 -34 58 -58 31 -25 65 -54 75 -65
19 -20 18 -21 -30 -28 -78 -13 -313 -8 -358 8 -46 15 -52 39 -12 50 15 5 39
11 54 16 38 10 60 52 48 89 -10 27 -34 44 -90 60 -40 11 -45 44 -9 72 32 25
92 28 133 6z m6289 -407 c19 -23 24 -82 9 -102 -25 -34 -73 -2 -91 60 -12 41
55 74 82 42z"/>
<path d="M3469 4362 c-30 -15 -61 -41 -71 -58 -43 -73 -71 -448 -49 -665 22
-224 75 -307 208 -325 133 -17 225 39 263 162 30 97 42 308 30 502 -20 323
-75 412 -253 412 -62 0 -84 -5 -128 -28z"/>
<path d="M6774 4365 c-26 -39 -33 -151 -33 -510 -1 -397 7 -490 44 -522 49
-43 178 -20 241 44 92 92 129 252 121 523 -7 228 -33 330 -108 415 -47 53 -99
75 -181 75 -61 0 -69 -2 -84 -25z"/>
<path d="M10162 4388 c-42 -44 -62 -125 -62 -252 0 -130 16 -220 45 -254 20
-23 31 -27 76 -26 64 1 82 19 100 102 20 90 17 286 -4 356 -33 107 -94 136
-155 74z"/>
</g>
</svg>
